<svg width="1114" height="173" viewBox="0 0 1114 173" fill="none" xmlns="http://www.w3.org/2000/svg">
<g clip-path="url(#clip0_4305_57)">
<path d="M1113.67 82.8599V66.4599H1096.95V53.7399L1075.89 46.9199V66.4599H1064.74V82.8599H1075.89V110.35C1075.89 132.37 1085.05 141.54 1106.27 141.54H1113.67V121.93H1108.85C1100.49 121.93 1097.12 117.59 1096.95 109.07V82.8699H1113.67V82.8599Z" fill="white"/>
<path d="M1037.42 97.33L1025.04 94.12C1020.86 92.99 1017.65 91.23 1017.65 87.69C1017.65 83.83 1021.51 81.1 1026.33 81.1C1031.15 81.1 1035.49 83.83 1035.49 88.98H1055.59C1055.75 71.14 1039.67 64.54 1026.01 64.54C1008.65 64.54 996.59 75.47 996.59 87.05C996.59 94.93 999.16 105.7 1018.45 110.84L1028.42 113.25C1034.05 114.7 1036.62 116.3 1036.62 119.52C1036.62 123.86 1031.96 126.91 1025.85 126.91C1018.45 126.91 1014.76 122.25 1014.76 117.91H994.99C995.15 134.47 1010.42 143.47 1026.18 143.47C1041.94 143.47 1057.69 135.27 1057.69 119.52C1057.69 113.41 1055.44 102.16 1037.43 97.34L1037.42 97.33Z" fill="white"/>
<path d="M959.78 76.4303C954.8 68.7103 945.15 64.5303 935.51 64.5303C913.97 64.5303 898.86 80.7703 898.86 104.08C898.86 127.39 914.29 143.47 935.03 143.47C945.16 143.47 954.8 138.49 959.79 130.77V141.54H980.85V66.4703H959.79V76.4403H959.78V76.4303ZM939.68 123.84C928.59 123.84 920.39 114.52 920.39 104.07C920.39 93.6203 928.59 84.1403 939.52 84.1403C950.45 84.1403 959.13 92.6603 959.13 104.07C959.13 114.84 950.29 123.84 939.68 123.84Z" fill="white"/>
<path d="M908.28 30.7695H824.85V50.5495H855.39V141.53H877.74V50.5495H908.28V30.7695Z" fill="white"/>
<path d="M744.34 64.5303C722.96 64.5303 703.99 80.2803 703.99 104.08C703.99 127.88 722.96 143.47 744.34 143.47C765.72 143.47 784.69 127.72 784.69 104.08C784.69 80.4403 765.72 64.5303 744.34 64.5303ZM744.34 123.85C733.89 123.85 725.37 115.65 725.37 104.08C725.37 92.5103 733.89 84.1503 744.34 84.1503C754.79 84.1503 763.31 92.3503 763.31 104.08C763.31 115.81 754.79 123.85 744.34 123.85Z" fill="white"/>
<path d="M689.85 66.6201H668.79V141.53H689.85V66.6201Z" fill="white"/>
<path d="M679.24 29.1201C672.61 29.1201 667.01 34.1301 667.01 40.6201C667.01 47.1101 672.61 52.2601 679.24 52.2601C685.87 52.2601 691.47 47.1001 691.47 40.6201C691.47 34.1401 686.02 29.1201 679.24 29.1201Z" fill="white"/>
<path d="M628.9 75.6203C623.6 67.9003 613.47 64.5303 604.79 64.5303C585.5 64.5303 567.98 79.8003 567.98 103.92C567.98 128.04 585.5 143.47 604.79 143.47C613.15 143.47 623.6 139.93 628.9 132.22V141.54H649.96V30.7803H628.9V75.6303V75.6203ZM608.8 123.84C598.19 123.84 589.35 114.84 589.35 103.91C589.35 92.9803 598.19 84.1403 608.8 84.1403C618.61 84.1403 628.25 92.3403 628.25 103.91C628.25 115.48 619.09 123.84 608.8 123.84Z" fill="white"/>
<path d="M532.78 106.17C532.78 119.67 523.46 123.85 515.9 123.85C508.34 123.85 501.59 118.38 501.59 106.65V66.46H480.53V107.78C480.37 130.29 490.66 143.47 510.27 143.47C517.67 143.47 529.56 139.13 532.78 129.32V141.54H553.84V66.47H532.78V106.18V106.17Z" fill="white"/>
<path d="M449.67 44.9199L428.61 51.7399V66.4599H417.46V82.8599H428.61V110.35C428.61 132.37 437.77 141.54 458.99 141.54H466.39V121.93H461.57C453.21 121.93 449.84 117.59 449.67 109.07V82.8699H466.39V66.4699H449.67V44.9299V44.9199Z" fill="white"/>
<path d="M379.04 77.0698L366.66 73.5298C355.09 70.1598 354.29 64.5298 354.29 61.7998C354.29 54.3998 360.88 48.6198 369.56 48.6198C376.77 48.6198 381.93 52.9298 384.76 57.7898L405.53 50.7798C400.45 37.3598 386.36 28.8398 370.04 28.8398C348.82 28.8398 331.78 42.5098 331.78 62.2798C331.78 72.2498 336.12 86.8798 360.39 93.3098L373.9 97.1698C383.38 100.06 387.88 104.4 387.88 110.51C387.88 118.39 381.29 123.85 371.33 123.85C361.37 123.85 354.15 116.2 351.51 110.46L331.71 117.05C335.39 132.55 350.27 143.46 370.68 143.46C391.09 143.46 410.39 131.41 410.39 109.38C410.39 90.5698 395.76 82.0498 379.04 77.0698Z" fill="white"/>
<path d="M126.41 93.9796L126.01 93.8496C116.31 90.6896 105.56 90.4596 95.11 93.8496L47.55 109.3L0 124.75L15.45 172.3L63 156.85L110.55 141.4L158.1 156.85L205.65 172.3L221.1 124.75L173.55 109.3L126.39 93.9796H126.41Z" fill="white"/>
<path d="M158.12 15.45L110.57 30.9L63.02 15.45L15.47 0L0.0200195 47.55L47.57 63L95.13 78.46C105.57 81.85 116.33 81.62 126.03 78.46H126.06L173.59 63L221.14 47.55L205.69 0L158.14 15.45H158.12Z" fill="white"/>
</g>
<defs>
<clipPath id="clip0_4305_57">
<rect width="1113.67" height="172.3" fill="white"/>
</clipPath>
</defs>
</svg>
